<svg width="18" height="18" viewBox="0 0 18 18" fill="none" xmlns="http://www.w3.org/2000/svg">
<path d="M15.7954 10.0369L17.5498 4.20429C17.587 4.08029 17.5934 3.94978 17.5685 3.82304C17.5435 3.69629 17.488 3.57677 17.4062 3.47388C17.3244 3.37098 17.2186 3.28752 17.0971 3.23006C16.9756 3.17261 16.8417 3.14272 16.7059 3.14275H5.10084L4.57892 1.26382C4.52952 1.08591 4.41952 0.928532 4.26608 0.816239C4.11264 0.703946 3.92438 0.643056 3.73068 0.643066H1.79387C1.56122 0.643066 1.33811 0.730853 1.17361 0.887113C1.0091 1.04337 0.916687 1.25531 0.916687 1.4763C0.916687 1.69728 1.0091 1.90922 1.17361 2.06548C1.33811 2.22174 1.56122 2.30952 1.79387 2.30952H3.05525L3.58156 4.18846V4.19679V4.20429L5.33592 10.0369L5.9903 12.5249C5.55709 12.7074 5.18379 12.9976 4.90981 13.3648C4.63583 13.7321 4.47134 14.1629 4.43372 14.6116C4.39609 15.0603 4.48672 15.5103 4.69604 15.9142C4.90536 16.318 5.2256 16.6607 5.62294 16.906C6.02028 17.1513 6.47998 17.2901 6.9535 17.3078C7.42701 17.3255 7.89677 17.2214 8.31318 17.0065C8.72958 16.7916 9.07717 16.4739 9.31924 16.087C9.56131 15.7 9.68889 15.2581 9.68849 14.808C9.68559 14.5235 9.63098 14.2416 9.52709 13.9747H11.6043C11.5004 14.2416 11.4458 14.5235 11.4429 14.808C11.4429 15.3024 11.5972 15.7856 11.8863 16.1967C12.1755 16.6078 12.5865 16.9282 13.0673 17.1174C13.5482 17.3066 14.0773 17.3561 14.5878 17.2596C15.0983 17.1632 15.5671 16.9251 15.9352 16.5755C16.3032 16.2259 16.5538 15.7805 16.6554 15.2956C16.7569 14.8107 16.7048 14.3081 16.5056 13.8514C16.3064 13.3946 15.9692 13.0042 15.5364 12.7295C15.1036 12.4549 14.5949 12.3083 14.0744 12.3083H7.74115L7.30256 10.6418H14.9516C15.1423 10.6419 15.3279 10.5828 15.4802 10.4737C15.6325 10.3645 15.7432 10.2112 15.7954 10.0369ZM14.0744 13.9747C14.2479 13.9747 14.4175 14.0236 14.5617 14.1152C14.706 14.2067 14.8184 14.3368 14.8848 14.4891C14.9512 14.6413 14.9686 14.8089 14.9347 14.9705C14.9009 15.1321 14.8173 15.2806 14.6947 15.3971C14.572 15.5137 14.4157 15.593 14.2455 15.6252C14.0754 15.6573 13.899 15.6408 13.7387 15.5778C13.5784 15.5147 13.4414 15.4079 13.345 15.2709C13.2487 15.1339 13.1972 14.9728 13.1972 14.808C13.1972 14.587 13.2896 14.375 13.4541 14.2188C13.6186 14.0625 13.8418 13.9747 14.0744 13.9747ZM7.93413 14.808C7.93413 14.9728 7.88269 15.1339 7.7863 15.2709C7.68991 15.4079 7.55292 15.5147 7.39263 15.5778C7.23235 15.6408 7.05598 15.6573 6.88582 15.6252C6.71566 15.593 6.55937 15.5137 6.43669 15.3971C6.31401 15.2806 6.23047 15.1321 6.19662 14.9705C6.16278 14.8089 6.18015 14.6413 6.24654 14.4891C6.31293 14.3368 6.42536 14.2067 6.56962 14.1152C6.71387 14.0236 6.88346 13.9747 7.05695 13.9747C7.28959 13.9747 7.51271 14.0625 7.67721 14.2188C7.84171 14.375 7.93413 14.587 7.93413 14.808ZM12.32 7.3089H11.4429V8.14213C11.4429 8.36311 11.3504 8.57505 11.1859 8.73131C11.0214 8.88757 10.7983 8.97536 10.5657 8.97536C10.333 8.97536 10.1099 8.88757 9.94541 8.73131C9.78091 8.57505 9.68849 8.36311 9.68849 8.14213V7.3089H8.81131C8.57867 7.3089 8.35556 7.22111 8.19105 7.06485C8.02655 6.90859 7.93413 6.69666 7.93413 6.47567C7.93413 6.25468 8.02655 6.04275 8.19105 5.88649C8.35556 5.73023 8.57867 5.64244 8.81131 5.64244H9.68849V4.80921C9.68849 4.58823 9.78091 4.37629 9.94541 4.22003C10.1099 4.06377 10.333 3.97598 10.5657 3.97598C10.7983 3.97598 11.0214 4.06377 11.1859 4.22003C11.3504 4.37629 11.4429 4.58823 11.4429 4.80921V5.64244H12.32C12.5527 5.64244 12.7758 5.73023 12.9403 5.88649C13.1048 6.04275 13.1972 6.25468 13.1972 6.47567C13.1972 6.69666 13.1048 6.90859 12.9403 7.06485C12.7758 7.22111 12.5527 7.3089 12.32 7.3089Z" fill="white"/>
</svg>
