<svg width="18" height="17" viewBox="0 0 18 17" fill="none" xmlns="http://www.w3.org/2000/svg">
<path d="M15.5454 9.68533L17.2997 3.85272C17.3369 3.72872 17.3433 3.59822 17.3184 3.47147C17.2935 3.34473 17.2379 3.22521 17.1561 3.12231C17.0743 3.01942 16.9685 2.93596 16.847 2.8785C16.7255 2.82104 16.5916 2.79116 16.4559 2.79119H4.85078L4.32885 0.912259C4.27946 0.734348 4.16946 0.576969 4.01602 0.464676C3.86258 0.352384 3.67432 0.291493 3.48062 0.291504H1.54381C1.31116 0.291504 1.08805 0.37929 0.923546 0.535551C0.759043 0.691812 0.666626 0.903747 0.666626 1.12473C0.666626 1.34572 0.759043 1.55765 0.923546 1.71391C1.08805 1.87018 1.31116 1.95796 1.54381 1.95796H2.80519L3.3315 3.83689V3.84523V3.85272L5.08586 9.68533L5.74024 12.1733C5.30703 12.3558 4.93373 12.646 4.65975 13.0133C4.38577 13.3806 4.22128 13.8113 4.18366 14.26C4.14603 14.7087 4.23666 15.1588 4.44598 15.5626C4.6553 15.9665 4.97554 16.3091 5.37288 16.5544C5.77022 16.7997 6.22992 16.9385 6.70344 16.9562C7.17695 16.9739 7.64671 16.8698 8.06312 16.655C8.47952 16.4401 8.82711 16.1224 9.06918 15.7354C9.31125 15.3484 9.43883 14.9065 9.43843 14.4564C9.43552 14.1719 9.38092 13.89 9.27703 13.6232H11.3542C11.2503 13.89 11.1957 14.1719 11.1928 14.4564C11.1928 14.9508 11.3471 15.4341 11.6363 15.8451C11.9254 16.2562 12.3364 16.5766 12.8173 16.7658C13.2981 16.955 13.8273 17.0045 14.3377 16.9081C14.8482 16.8116 15.3171 16.5735 15.6851 16.2239C16.0531 15.8744 16.3038 15.429 16.4053 14.9441C16.5068 14.4592 16.4547 13.9566 16.2556 13.4998C16.0564 13.043 15.7191 12.6527 15.2863 12.378C14.8536 12.1033 14.3448 11.9567 13.8243 11.9567H7.49109L7.0525 10.2903H14.7015C14.8923 10.2903 15.0779 10.2313 15.2302 10.1221C15.3824 10.0129 15.4931 9.85961 15.5454 9.68533ZM13.8243 13.6232C13.9978 13.6232 14.1674 13.672 14.3117 13.7636C14.4559 13.8551 14.5684 13.9853 14.6347 14.1375C14.7011 14.2898 14.7185 14.4573 14.6847 14.619C14.6508 14.7806 14.5673 14.929 14.4446 15.0456C14.3219 15.1621 14.1656 15.2415 13.9955 15.2736C13.8253 15.3058 13.6489 15.2893 13.4887 15.2262C13.3284 15.1631 13.1914 15.0563 13.095 14.9193C12.9986 14.7823 12.9472 14.6212 12.9472 14.4564C12.9472 14.2354 13.0396 14.0235 13.2041 13.8672C13.3686 13.711 13.5917 13.6232 13.8243 13.6232ZM7.68407 14.4564C7.68407 14.6212 7.63262 14.7823 7.53624 14.9193C7.43985 15.0563 7.30286 15.1631 7.14257 15.2262C6.98229 15.2893 6.80592 15.3058 6.63576 15.2736C6.4656 15.2415 6.30931 15.1621 6.18663 15.0456C6.06395 14.929 5.98041 14.7806 5.94656 14.619C5.91272 14.4573 5.93009 14.2898 5.99648 14.1375C6.06287 13.9853 6.1753 13.8551 6.31955 13.7636C6.46381 13.672 6.6334 13.6232 6.80689 13.6232C7.03953 13.6232 7.26265 13.711 7.42715 13.8672C7.59165 14.0235 7.68407 14.2354 7.68407 14.4564ZM12.07 6.95734H11.1928V7.79057C11.1928 8.01155 11.1004 8.22349 10.9359 8.37975C10.7714 8.53601 10.5483 8.62379 10.3156 8.62379C10.083 8.62379 9.85986 8.53601 9.69535 8.37975C9.53085 8.22349 9.43843 8.01155 9.43843 7.79057V6.95734H8.56125C8.32861 6.95734 8.10549 6.86955 7.94099 6.71329C7.77649 6.55703 7.68407 6.34509 7.68407 6.12411C7.68407 5.90312 7.77649 5.69119 7.94099 5.53492C8.10549 5.37866 8.32861 5.29088 8.56125 5.29088H9.43843V4.45765C9.43843 4.23666 9.53085 4.02473 9.69535 3.86847C9.85986 3.71221 10.083 3.62442 10.3156 3.62442C10.5483 3.62442 10.7714 3.71221 10.9359 3.86847C11.1004 4.02473 11.1928 4.23666 11.1928 4.45765V5.29088H12.07C12.3026 5.29088 12.5257 5.37866 12.6902 5.53492C12.8547 5.69119 12.9472 5.90312 12.9472 6.12411C12.9472 6.34509 12.8547 6.55703 12.6902 6.71329C12.5257 6.86955 12.3026 6.95734 12.07 6.95734Z" fill="#1F2A37"/>
</svg>
