<svg width="14" height="16" viewBox="0 0 12 14" fill="none" xmlns="http://www.w3.org/2000/svg" className="hover:text-red-600">
<path d="M2.34663 13.6667C1.97329 13.6667 1.65552 13.5356 1.39329 13.2734C1.13107 13.0111 0.999959 12.6936 0.999959 12.3209V2.00002H0.166626V1.16669H3.49996V0.525024H8.49996V1.16669H11.8333V2.00002H11V12.3209C11 12.7042 10.8716 13.0245 10.615 13.2817C10.3583 13.5389 10.0377 13.6672 9.65329 13.6667H2.34663ZM10.1666 2.00002H1.83329V12.3209C1.83329 12.4703 1.88135 12.5931 1.97746 12.6892C2.07357 12.7853 2.19663 12.8334 2.34663 12.8334H9.65413C9.78191 12.8334 9.89941 12.78 10.0066 12.6734C10.1138 12.5667 10.1672 12.4489 10.1666 12.32V2.00002ZM4.17329 11.1667H5.00663V3.66669H4.17329V11.1667ZM6.99329 11.1667H7.82663V3.66669H6.99329V11.1667Z" fill="black" />
</svg>
