<svg width="21" height="20" viewBox="0 0 21 20" fill="none" xmlns="http://www.w3.org/2000/svg">
<path d="M10.921 7C10.1254 7 9.36233 7.31607 8.79972 7.87868C8.23711 8.44129 7.92104 9.20435 7.92104 10C7.92104 10.7956 8.23711 11.5587 8.79972 12.1213C9.36233 12.6839 10.1254 13 10.921 13C11.7167 13 12.4798 12.6839 13.0424 12.1213C13.605 11.5587 13.921 10.7956 13.921 10C13.921 9.20435 13.605 8.44129 13.0424 7.87868C12.4798 7.31607 11.7167 7 10.921 7ZM10.921 5C12.2471 5 13.5189 5.52678 14.4566 6.46447C15.3943 7.40215 15.921 8.67392 15.921 10C15.921 11.3261 15.3943 12.5979 14.4566 13.5355C13.5189 14.4732 12.2471 15 10.921 15C9.59496 15 8.32319 14.4732 7.38551 13.5355C6.44783 12.5979 5.92104 11.3261 5.92104 10C5.92104 8.67392 6.44783 7.40215 7.38551 6.46447C8.32319 5.52678 9.59496 5 10.921 5ZM17.421 4.75C17.421 5.08152 17.2893 5.39946 17.0549 5.63388C16.8205 5.8683 16.5026 6 16.171 6C15.8395 6 15.5216 5.8683 15.2872 5.63388C15.0527 5.39946 14.921 5.08152 14.921 4.75C14.921 4.41848 15.0527 4.10054 15.2872 3.86612C15.5216 3.6317 15.8395 3.5 16.171 3.5C16.5026 3.5 16.8205 3.6317 17.0549 3.86612C17.2893 4.10054 17.421 4.41848 17.421 4.75ZM10.921 2C8.44704 2 8.04304 2.007 6.89204 2.058C6.10804 2.095 5.58204 2.2 5.09404 2.39C4.68588 2.54037 4.31676 2.78063 4.01404 3.093C3.70132 3.39562 3.46071 3.76474 3.31004 4.173C3.12004 4.663 3.01504 5.188 2.97904 5.971C2.92704 7.075 2.92004 7.461 2.92004 10C2.92004 12.475 2.92704 12.878 2.97804 14.029C3.01504 14.812 3.12004 15.339 3.30904 15.826C3.47904 16.261 3.67904 16.574 4.01104 16.906C4.34804 17.242 4.66104 17.443 5.09104 17.609C5.58504 17.8 6.11104 17.906 6.89104 17.942C7.99504 17.994 8.38104 18 10.92 18C13.395 18 13.798 17.993 14.949 17.942C15.731 17.905 16.257 17.8 16.746 17.611C17.1542 17.4606 17.5233 17.2204 17.826 16.908C18.163 16.572 18.364 16.259 18.53 15.828C18.72 15.336 18.826 14.81 18.862 14.028C18.914 12.925 18.92 12.538 18.92 10C18.92 7.526 18.913 7.122 18.862 5.971C18.825 5.189 18.719 4.661 18.53 4.173C18.3797 3.76483 18.1394 3.39572 17.827 3.093C17.5244 2.78027 17.1553 2.53966 16.747 2.389C16.257 2.199 15.731 2.094 14.949 2.058C13.846 2.006 13.46 2 10.92 2M10.92 0C13.637 0 13.976 0.00999994 15.043 0.0599999C16.107 0.11 16.833 0.277 17.47 0.525C18.13 0.779 18.686 1.123 19.242 1.678C19.7507 2.17773 20.1442 2.78247 20.395 3.45C20.642 4.087 20.81 4.813 20.86 5.878C20.907 6.944 20.92 7.283 20.92 10C20.92 12.717 20.91 13.056 20.86 14.122C20.81 15.188 20.642 15.912 20.395 16.55C20.1442 17.2175 19.7507 17.8223 19.242 18.322C18.7423 18.8307 18.1376 19.2242 17.47 19.475C16.833 19.722 16.107 19.89 15.043 19.94C13.976 19.987 13.637 20 10.92 20C8.20304 20 7.86404 19.99 6.79704 19.94C5.73304 19.89 5.00804 19.722 4.37004 19.475C3.70252 19.2242 3.09778 18.8307 2.59804 18.322C2.08935 17.8223 1.69586 17.2175 1.44504 16.55C1.19704 15.913 1.03004 15.187 0.980044 14.122C0.932044 13.056 0.920044 12.717 0.920044 10C0.920044 7.283 0.930044 6.944 0.980044 5.878C1.03004 4.812 1.19704 4.088 1.44504 3.45C1.69586 2.78247 2.08935 2.17773 2.59804 1.678C3.09778 1.16931 3.70252 0.775816 4.37004 0.525C5.00704 0.277 5.73204 0.11 6.79704 0.0599999C7.86504 0.0129999 8.20404 0 10.921 0" fill="black" fill-opacity="0.5"/>
</svg>
