<svg width="19" height="17" viewBox="0 0 19 17" fill="none" xmlns="http://www.w3.org/2000/svg">
<path fill-rule="evenodd" clip-rule="evenodd" d="M16.2154 8.20898C16.9224 7.49077 17.3152 6.5211 17.3073 5.51328C17.2995 4.50546 16.8916 3.54204 16.1734 2.83497C15.8177 2.48487 15.3966 2.20824 14.9341 2.02088C14.4716 1.83351 13.9767 1.73908 13.4777 1.74298C12.4698 1.75086 11.5064 2.15877 10.7994 2.87698C10.6074 3.06897 10.3634 3.30464 10.0674 3.58398L9.24435 4.35897L8.42135 3.58398C8.12469 3.30398 7.88035 3.06831 7.68835 2.87698C6.97572 2.16434 6.00917 1.76399 5.00135 1.76399C3.99353 1.76399 3.02699 2.16434 2.31435 2.87698C0.846353 4.34597 0.829353 6.72098 2.26035 8.19698L9.24435 15.181L16.2154 8.20898ZM1.46535 2.02898C1.92966 1.56454 2.48092 1.19613 3.08763 0.944771C3.69435 0.693415 4.34463 0.564043 5.00135 0.564043C5.65807 0.564043 6.30836 0.693415 6.91508 0.944771C7.52179 1.19613 8.07304 1.56454 8.53735 2.02898C8.71935 2.21164 8.95502 2.43897 9.24435 2.71097C9.53235 2.43897 9.76802 2.21131 9.95135 2.02798C10.8819 1.08314 12.1496 0.54665 13.4757 0.536523C14.8017 0.526396 16.0775 1.04346 17.0224 1.97397C17.9672 2.90449 18.5037 4.17222 18.5138 5.49829C18.5239 6.82436 18.0069 8.10014 17.0764 9.04498L9.95135 16.171C9.76383 16.3584 9.50952 16.4638 9.24435 16.4638C8.97919 16.4638 8.72488 16.3584 8.53735 16.171L1.41035 9.04397C0.496394 8.10138 -0.0101369 6.83711 0.000153785 5.52421C0.0104444 4.2113 0.53673 2.95513 1.46535 2.02697V2.02898Z" fill="black" fill-opacity="0.5"/>
</svg>
