<svg width="94" height="23" viewBox="0 0 94 23" fill="none" xmlns="http://www.w3.org/2000/svg">
<path d="M15.576 16.016C15.576 17.168 15.2667 18.2133 14.648 19.152C14.0507 20.0907 13.1867 20.8373 12.056 21.392C10.9467 21.9253 9.63467 22.192 8.12 22.192C6.69067 22.192 5.29333 21.8933 3.928 21.296C2.56267 20.6773 1.57067 19.792 0.952 18.64L1.336 18.128C1.912 19.2373 2.85067 20.0907 4.152 20.688C5.45333 21.264 6.776 21.552 8.12 21.552C9.57067 21.552 10.712 21.2107 11.544 20.528C12.3973 19.8453 12.824 18.8853 12.824 17.648C12.824 16.688 12.3867 15.8347 11.512 15.088C10.6587 14.32 9.31467 13.552 7.48 12.784C5.88 12.1013 4.62133 11.504 3.704 10.992C2.808 10.4587 2.11467 9.85067 1.624 9.168C1.15467 8.464 0.92 7.62133 0.92 6.64C0.92 5.40267 1.24 4.34667 1.88 3.472C2.54133 2.576 3.416 1.904 4.504 1.456C5.592 0.986666 6.776 0.751999 8.056 0.751999C9.50667 0.751999 10.872 1.08267 12.152 1.744C13.432 2.40533 14.3493 3.30133 14.904 4.432L14.488 4.944C13.9547 3.83467 13.08 2.97067 11.864 2.352C10.648 1.712 9.4 1.392 8.12 1.392C6.62667 1.392 5.45333 1.69066 4.6 2.288C3.74667 2.88533 3.32 3.76 3.32 4.912C3.32 5.57333 3.512 6.14933 3.896 6.64C4.30133 7.10933 4.83467 7.52533 5.496 7.888C6.17867 8.25067 7.192 8.74133 8.536 9.36L9.496 9.808C11.5653 10.7467 13.0907 11.6747 14.072 12.592C15.0747 13.5093 15.576 14.6507 15.576 16.016ZM33.4048 1.584H23.7088V11.152H31.0048V11.792H23.7088V21.36H33.4048V22H20.0928V0.943998H33.4048V1.584ZM41.5525 21.36H51.2485V22H37.9365V0.943998H41.5525V21.36ZM70.044 22L67.356 15.888H58.46L55.644 22H54.94L64.7 0.751999L73.98 22H70.044ZM58.748 15.248H67.1L63.036 5.936L58.748 15.248ZM90.2618 0.943998H93.8778V22H90.2618V11.824H81.3338V22H77.7178V0.943998H81.3338V11.184H90.2618V0.943998Z" fill="black"/>
</svg>
